HIERARCHY
ROOT Hips
{
	OFFSET 0.000000 83.214638 0.000000
	CHANNELS 6 Xposition Yposition Zposition Xrotation Yrotation Zrotation
	JOINT Pelvis
	{
		OFFSET 0.000000 0.000000 0.000000
		CHANNELS 3 Xrotation Yrotation Zrotation
		JOINT LeftUpLeg
		{
			OFFSET 8.479700 -4.795502 -0.379100
			CHANNELS 3 Xrotation Yrotation Zrotation
			JOINT LeftLeg
			{
				OFFSET 0.024144 -32.555107 0.112900
				CHANNELS 3 Xrotation Yrotation Zrotation
				JOINT LeftFoot
				{
					OFFSET -0.024144 -32.638630 -3.012600
					CHANNELS 3 Xrotation Yrotation Zrotation
					JOINT LeftToeBase
					{
						OFFSET 0.970200 -13.225400 11.864200
						CHANNELS 3 Xrotation Yrotation Zrotation
						End Site
						{
							OFFSET 0.000000 12.319262 0.000000
						}
					}
					JOINT LFootTongue
					{
						OFFSET 1.142400 -1.059800 6.665200
						CHANNELS 3 Xrotation Yrotation Zrotation
						End Site
						{
							OFFSET 0.000000 12.319262 0.000000
						}
					}
				}
				JOINT LeftPantLeg
				{
					OFFSET 0.918482 -16.533964 -2.284700
					CHANNELS 3 Xrotation Yrotation Zrotation
					End Site
					{
						OFFSET 0.350399 24.744368 0.000000
					}
				}
			}
		}
		JOINT RightUpLeg
		{
			OFFSET -8.479700 -4.795502 -0.379100
			CHANNELS 3 Xrotation Yrotation Zrotation
			JOINT RightLeg
			{
				OFFSET -0.023144 -32.555092 0.112900
				CHANNELS 3 Xrotation Yrotation Zrotation
				JOINT RightFoot
				{
					OFFSET 0.023144 -32.638641 -3.012700
					CHANNELS 3 Xrotation Yrotation Zrotation
					JOINT RightToeBase
					{
						OFFSET -0.970200 -13.225400 11.864200
						CHANNELS 3 Xrotation Yrotation Zrotation
						End Site
						{
							OFFSET 0.000000 12.319244 0.000000
						}
					}
					JOINT RFootTongue
					{
						OFFSET -1.142200 -1.059800 6.665200
						CHANNELS 3 Xrotation Yrotation Zrotation
						End Site
						{
							OFFSET 0.000000 12.319243 0.000000
						}
					}
				}
				JOINT RightPantLeg
				{
					OFFSET -0.919482 -16.533978 -2.284800
					CHANNELS 3 Xrotation Yrotation Zrotation
					End Site
					{
						OFFSET -0.350400 24.744419 0.000000
					}
				}
			}
		}
	}
	JOINT Spine
	{
		OFFSET 0.000000 7.722000 1.166200
		CHANNELS 3 Xrotation Yrotation Zrotation
		JOINT Spine1
		{
			OFFSET 0.000000 12.024101 0.248800
			CHANNELS 3 Xrotation Yrotation Zrotation
			JOINT Spine2
			{
				OFFSET 0.000000 11.502998 -0.491200
				CHANNELS 3 Xrotation Yrotation Zrotation
				JOINT Neck
				{
					OFFSET 0.000000 18.430702 -3.123100
					CHANNELS 3 Xrotation Yrotation Zrotation
					JOINT Head
					{
						OFFSET 0.000000 9.051102 1.034000
						CHANNELS 3 Xrotation Yrotation Zrotation
						JOINT HairB
						{
							OFFSET 0.208400 24.786102 24.822300
							CHANNELS 3 Xrotation Yrotation Zrotation
							End Site
							{
								OFFSET 0.000000 32.263779 0.000000
							}
						}
						JOINT HairA
						{
							OFFSET -7.081100 24.428299 23.196600
							CHANNELS 3 Xrotation Yrotation Zrotation
							End Site
							{
								OFFSET 0.000000 32.263779 0.000000
							}
						}
						JOINT Hat
						{
							OFFSET 16.728800 15.048294 -15.439601
							CHANNELS 3 Xrotation Yrotation Zrotation
							End Site
							{
								OFFSET 0.000000 32.263779 0.000000
							}
						}
					}
				}
				JOINT LeftShoulder
				{
					OFFSET 6.197800 13.665199 -4.064700
					CHANNELS 3 Xrotation Yrotation Zrotation
					JOINT LeftArm
					{
						OFFSET 7.778100 -0.187103 -1.709300
						CHANNELS 3 Xrotation Yrotation Zrotation
						JOINT LeftForeArm
						{
							OFFSET 22.049376 0.000000 0.000000
							CHANNELS 3 Xrotation Yrotation Zrotation
							JOINT LeftHand
							{
								OFFSET 23.009392 0.000000 0.000000
								CHANNELS 3 Xrotation Yrotation Zrotation
								JOINT LeftHandThumb1
								{
									OFFSET 3.507191 -2.063065 3.133727
									CHANNELS 3 Xrotation Yrotation Zrotation
									JOINT LeftHandThumb2
									{
										OFFSET 3.101337 -1.790558 1.790558
										CHANNELS 3 Xrotation Yrotation Zrotation
										JOINT LeftHandThumb3
										{
											OFFSET 3.058640 -1.765907 1.765906
											CHANNELS 3 Xrotation Yrotation Zrotation
											End Site
											{
												OFFSET -0.415260 3.926476 -0.049563
											}
										}
									}
								}
								JOINT LeftHandIndex1
								{
									OFFSET 11.334419 -0.901459 3.706815
									CHANNELS 3 Xrotation Yrotation Zrotation
									JOINT LeftHandIndex2
									{
										OFFSET 3.283112 0.000000 0.000000
										CHANNELS 3 Xrotation Yrotation Zrotation
										JOINT LeftHandIndex3
										{
											OFFSET 3.323853 0.000000 0.000000
											CHANNELS 3 Xrotation Yrotation Zrotation
											End Site
											{
												OFFSET -1.135597 3.097809 0.402452
											}
										}
									}
								}
								JOINT LeftHandMiddle1
								{
									OFFSET 11.335861 0.000000 0.000000
									CHANNELS 3 Xrotation Yrotation Zrotation
									JOINT LeftHandMiddle2
									{
										OFFSET 3.410492 0.000000 0.000000
										CHANNELS 3 Xrotation Yrotation Zrotation
										JOINT LeftHandMiddle3
										{
											OFFSET 3.312172 0.000000 0.000000
											CHANNELS 3 Xrotation Yrotation Zrotation
											End Site
											{
												OFFSET -1.150200 3.080154 0.400270
											}
										}
									}
								}
								JOINT LeftHandRing1
								{
									OFFSET 11.514786 -0.013176 -3.003090
									CHANNELS 3 Xrotation Yrotation Zrotation
									JOINT LeftHandRing2
									{
										OFFSET 3.053307 0.000000 0.000000
										CHANNELS 3 Xrotation Yrotation Zrotation
										JOINT LeftHandRing3
										{
											OFFSET 3.295807 0.000000 0.000000
											CHANNELS 3 Xrotation Yrotation Zrotation
											End Site
											{
												OFFSET -1.281006 3.013344 0.375733
											}
										}
									}
								}
								JOINT LeftHandPinky1
								{
									OFFSET 10.518692 -0.960396 -5.730441
									CHANNELS 3 Xrotation Yrotation Zrotation
									JOINT LeftHandPinky2
									{
										OFFSET 2.861649 0.000000 0.000000
										CHANNELS 3 Xrotation Yrotation Zrotation
										JOINT LeftHandPinky3
										{
											OFFSET 2.863380 0.000000 0.000000
											CHANNELS 3 Xrotation Yrotation Zrotation
											End Site
											{
												OFFSET -0.843597 2.711159 0.369971
											}
										}
									}
								}
							}
							JOINT LSleeve
							{
								OFFSET 6.676277 -0.344902 -1.011730
								CHANNELS 3 Xrotation Yrotation Zrotation
								End Site
								{
									OFFSET 0.000000 14.885353 0.000000
								}
							}
						}
					}
				}
				JOINT RightShoulder
				{
					OFFSET -6.197800 13.665199 -4.064700
					CHANNELS 3 Xrotation Yrotation Zrotation
					JOINT RightArm
					{
						OFFSET -7.778100 -0.187103 -1.709300
						CHANNELS 3 Xrotation Yrotation Zrotation
						JOINT RightForeArm
						{
							OFFSET -22.049376 0.000000 0.000000
							CHANNELS 3 Xrotation Yrotation Zrotation
							JOINT RightHand
							{
								OFFSET -23.009392 0.000000 0.000000
								CHANNELS 3 Xrotation Yrotation Zrotation
								JOINT RightHandThumb1
								{
									OFFSET -3.507191 -2.063065 3.133727
									CHANNELS 3 Xrotation Yrotation Zrotation
									JOINT RightHandThumb2
									{
										OFFSET -3.101337 -1.790558 1.790558
										CHANNELS 3 Xrotation Yrotation Zrotation
										JOINT RightHandThumb3
										{
											OFFSET -3.058640 -1.765907 1.765906
											CHANNELS 3 Xrotation Yrotation Zrotation
											End Site
											{
												OFFSET 0.415260 3.926476 -0.049563
											}
										}
									}
								}
								JOINT RightHandIndex1
								{
									OFFSET -11.334419 -0.901459 3.706815
									CHANNELS 3 Xrotation Yrotation Zrotation
									JOINT RightHandIndex2
									{
										OFFSET -3.283112 0.000000 0.000000
										CHANNELS 3 Xrotation Yrotation Zrotation
										JOINT RightHandIndex3
										{
											OFFSET -3.323853 0.000000 0.000000
											CHANNELS 3 Xrotation Yrotation Zrotation
											End Site
											{
												OFFSET 1.135597 3.097809 0.402452
											}
										}
									}
								}
								JOINT RightHandMiddle1
								{
									OFFSET -11.335861 0.000000 0.000000
									CHANNELS 3 Xrotation Yrotation Zrotation
									JOINT RightHandMiddle2
									{
										OFFSET -3.410492 0.000000 0.000000
										CHANNELS 3 Xrotation Yrotation Zrotation
										JOINT RightHandMiddle3
										{
											OFFSET -3.312172 0.000000 0.000000
											CHANNELS 3 Xrotation Yrotation Zrotation
											End Site
											{
												OFFSET 1.150200 3.080154 0.400270
											}
										}
									}
								}
								JOINT RightHandRing1
								{
									OFFSET -11.514786 -0.013176 -3.003090
									CHANNELS 3 Xrotation Yrotation Zrotation
									JOINT RightHandRing2
									{
										OFFSET -3.053307 0.000000 0.000000
										CHANNELS 3 Xrotation Yrotation Zrotation
										JOINT RightHandRing3
										{
											OFFSET -3.295807 0.000000 0.000000
											CHANNELS 3 Xrotation Yrotation Zrotation
											End Site
											{
												OFFSET 1.281006 3.013344 0.375733
											}
										}
									}
								}
								JOINT RightHandPinky1
								{
									OFFSET -10.518692 -0.960396 -5.730441
									CHANNELS 3 Xrotation Yrotation Zrotation
									JOINT RightHandPinky2
									{
										OFFSET -2.861649 0.000000 0.000000
										CHANNELS 3 Xrotation Yrotation Zrotation
										JOINT RightHandPinky3
										{
											OFFSET -2.863380 0.000000 0.000000
											CHANNELS 3 Xrotation Yrotation Zrotation
											End Site
											{
												OFFSET 0.843597 2.711159 0.369971
											}
										}
									}
								}
							}
							JOINT RSleeve
							{
								OFFSET -6.676277 -0.344902 -1.011730
								CHANNELS 3 Xrotation Yrotation Zrotation
								End Site
								{
									OFFSET 0.000000 14.885353 0.000000
								}
							}
						}
					}
				}
				JOINT Backpack
				{
					OFFSET 0.000000 -2.471497 36.677502
					CHANNELS 3 Xrotation Yrotation Zrotation
					End Site
					{
						OFFSET 0.000000 20.427315 0.000000
					}
				}
				JOINT Hood
				{
					OFFSET 0.000000 18.754097 -10.431000
					CHANNELS 3 Xrotation Yrotation Zrotation
					JOINT Hood1
					{
						OFFSET 0.000000 -5.011002 -7.685901
						CHANNELS 3 Xrotation Yrotation Zrotation
						End Site
						{
							OFFSET 0.000000 9.175140 0.000000
						}
					}
				}
				JOINT LHoodieString
				{
					OFFSET 5.250500 16.397697 3.089900
					CHANNELS 3 Xrotation Yrotation Zrotation
					JOINT LHoodieString1
					{
						OFFSET 0.257700 -6.364304 3.694600
						CHANNELS 3 Xrotation Yrotation Zrotation
						JOINT LHoodieString2
						{
							OFFSET 0.000000 -9.643799 2.679100
							CHANNELS 3 Xrotation Yrotation Zrotation
							End Site
							{
								OFFSET 0.000000 10.009018 0.000000
							}
						}
					}
				}
				JOINT RHoodieString
				{
					OFFSET -5.250500 16.397697 3.089900
					CHANNELS 3 Xrotation Yrotation Zrotation
					JOINT RHoodieString1
					{
						OFFSET -0.257700 -6.364304 3.694600
						CHANNELS 3 Xrotation Yrotation Zrotation
						JOINT RHoodieString2
						{
							OFFSET 0.000000 -9.643799 2.679100
							CHANNELS 3 Xrotation Yrotation Zrotation
							End Site
							{
								OFFSET 0.000000 10.009018 0.000000
							}
						}
					}
				}
			}
			JOINT LBackpack_Strap
			{
				OFFSET 15.223200 -7.719803 -6.610900
				CHANNELS 3 Xrotation Yrotation Zrotation
				End Site
				{
					OFFSET 0.000000 16.040596 0.000000
				}
			}
			JOINT RBackpack_Strap
			{
				OFFSET -15.223000 -7.719803 -6.610900
				CHANNELS 3 Xrotation Yrotation Zrotation
				End Site
				{
					OFFSET 0.000000 16.040596 0.000000
				}
			}
		}
	}
	JOINT BoyFacialAnim_Joint
	{
		OFFSET 1.000000 -82.208099 -1.550900
		CHANNELS 3 Xrotation Yrotation Zrotation
		End Site
		{
			OFFSET 0.000000 30.012791 0.000000
		}
	}
}
MOTION
Frames: 4
Frame Time: 0.033333
5.785006 78.256767 2.898478 -3.486690 -6.961961 1.339409 -0.000000 -0.000000 0.000000 -14.318210 8.380184 -0.533045 42.739977 -8.422491 3.179656 -18.590276 -8.422474 2.866032 0.000000 -0.000000 0.000000 0.000000 -0.000000 0.000000 0.000000 -0.000000 0.000000 -29.558535 -6.779062 -2.893826 52.443237 -9.675422 2.656437 -2.169713 -3.007123 -1.233680 0.000002 -0.000000 -0.000000 0.000002 -0.000000 -0.000000 -0.000000 -0.000001 0.000001 16.723879 -2.023460 -0.296622 -2.728567 -0.236543 0.776599 -2.725806 -0.214559 0.790720 7.336463 -2.173462 -5.699727 -2.081934 3.014784 2.212322 0.000001 -0.000000 0.000000 0.000001 -0.000000 0.000000 0.000001 -0.000000 0.000000 -1.977613 14.156966 -7.949820 3.948206 -1.016857 -48.930007 -0.000024 -80.863914 -0.000043 -48.069741 -0.591797 12.394101 -1.540041 3.690195 6.142355 51.365137 17.351865 -36.181701 0.000001 -0.000002 0.000001 7.501352 7.296431 -74.775764 7.106076 6.877543 -91.877225 -0.000000 0.000001 -0.000007 5.180786 6.668801 -75.546974 7.106007 6.877525 -91.876754 0.000001 -0.000001 -0.000002 0.347163 5.312936 -74.281695 7.182501 6.874621 -92.515677 0.000001 -0.000002 -0.000004 -2.219143 5.082059 -77.867476 7.074988 2.792215 -91.619591 -0.000001 0.000003 -0.000002 0.000004 0.000002 0.000001 1.119764 1.732753 0.171681 9.953519 -17.873012 62.985293 -0.000096 81.980418 0.000092 -38.065648 6.012593 3.284947 19.842145 -4.446541 11.267545 13.543057 -24.319343 0.843816 -0.000000 0.000001 -0.000002 4.460560 -6.489682 68.973723 8.039654 -6.862408 99.059183 -0.000001 -0.000002 -0.000002 4.588023 -6.537081 69.737304 8.039674 -6.862375 99.059518 -0.000000 0.000000 0.000003 4.426526 -6.477853 67.610342 8.224159 -6.830656 100.606788 -0.000001 -0.000000 0.000000 4.460554 -6.489641 68.973723 8.039658 -6.862396 99.059183 0.000000 0.000002 0.000000 0.000001 -0.000000 0.000001 0.000000 -0.000000 -0.000000 0.000000 -0.000000 -0.000000 0.000000 -0.000000 -0.000000 0.000000 -0.000000 -0.000000 0.000000 -0.000000 -0.000000 -0.000001 0.000000 0.000000 0.000000 -0.000000 -0.000000 0.000000 -0.000000 -0.000000 -0.000001 0.000000 0.000000 0.000000 -0.000000 0.000000 0.000000 -0.000000 0.000000 -0.000000 -0.000000 0.000000 
5.535215 80.768120 3.108169 -3.444597 -6.753506 0.517501 0.000000 -0.000000 -0.000000 -13.347311 9.025132 -0.173646 37.712213 -8.102389 4.089948 -7.896458 -9.408793 2.958622 0.000000 -0.000000 0.000000 0.000000 -0.000000 0.000000 0.000002 -0.000000 -0.000000 -29.083307 -7.075962 -3.938136 48.848932 -7.671963 3.529760 7.668329 -1.457642 4.004050 -0.000000 0.000000 -0.000000 -0.000000 0.000000 -0.000000 -0.000001 0.000001 0.000001 15.668657 -2.221353 0.866852 -2.055608 -0.253571 0.573335 -2.053572 -0.235470 0.586286 7.722820 -2.126800 -5.490293 -1.570606 3.372216 1.515468 0.000001 0.000000 0.000000 0.000001 0.000000 0.000000 0.000001 0.000000 0.000000 -2.009589 14.283748 -7.923889 8.587802 -5.381381 -51.280965 0.000018 -72.522348 0.000036 -49.949300 1.093898 9.315033 -1.540041 3.690195 6.142352 51.365133 17.351867 -36.181691 0.000002 0.000002 -0.000001 7.501349 7.296430 -74.775764 7.106081 6.877539 -91.877219 0.000001 0.000001 -0.000002 5.180786 6.668798 -75.546974 7.106011 6.877526 -91.876761 0.000001 0.000004 0.000004 0.347163 5.312934 -74.281695 7.182503 6.874624 -92.515677 0.000001 0.000000 -0.000000 -2.219142 5.082057 -77.867476 7.074988 2.792216 -91.619591 -0.000000 0.000000 -0.000002 0.000003 0.000002 0.000000 1.469747 3.240580 1.132050 13.819404 -13.548525 63.019341 -0.000041 72.168988 0.000058 -39.098496 1.871021 7.766261 19.842142 -4.446541 11.267546 13.543054 -24.319344 0.843816 -0.000000 -0.000002 0.000001 4.460559 -6.489682 68.973723 8.039658 -6.862405 99.059190 -0.000002 0.000000 -0.000002 4.588025 -6.537084 69.737297 8.039678 -6.862378 99.059518 0.000003 0.000003 0.000004 4.426524 -6.477861 67.610335 8.224158 -6.830657 100.606788 0.000004 -0.000002 0.000004 4.460555 -6.489647 68.973716 8.039657 -6.862398 99.059183 0.000002 0.000001 -0.000003 -0.000000 -0.000001 -0.000004 -0.000000 -0.000000 -0.000000 -0.000000 -0.000000 -0.000000 -0.000000 -0.000000 -0.000000 -0.000000 -0.000000 -0.000000 -0.000000 -0.000000 -0.000000 -0.000001 -0.000001 0.000000 -0.000000 -0.000000 -0.000000 -0.000000 -0.000000 -0.000000 -0.000001 -0.000001 0.000000 0.000001 -0.000001 0.000000 0.000001 -0.000001 0.000000 0.000000 -0.000000 -0.000000 
5.029842 83.883415 3.629980 -2.866551 -5.649583 -0.344374 -0.000000 0.000000 -0.000000 -11.026241 9.384898 -0.148888 28.375961 -8.961395 4.811316 6.787653 -9.364814 3.412468 0.000001 -0.000001 0.000000 0.000001 -0.000001 0.000000 0.000000 -0.000000 -0.000000 -26.424581 -7.661595 -3.782599 42.965872 -2.841402 4.478431 10.821564 -1.300786 6.975957 0.000003 0.000002 -0.000000 0.000003 0.000002 -0.000000 -0.000001 -0.000000 0.000001 13.208341 -2.535791 1.610792 -1.104260 -0.274561 0.557153 -1.102296 -0.262061 0.566739 8.111916 -2.120035 -4.267832 -0.638642 3.065456 0.630967 -0.000002 -0.000000 -0.000000 -0.000002 -0.000000 -0.000000 -0.000002 -0.000000 -0.000000 -2.171636 14.949365 -7.972992 11.413000 -8.732878 -52.544393 0.000011 -61.934605 0.000011 -51.189747 4.324310 6.701919 -1.540042 3.690193 6.142355 51.365133 17.351870 -36.181701 -0.000001 0.000002 -0.000001 7.501353 7.296428 -74.775764 7.106075 6.877543 -91.877219 -0.000003 -0.000001 -0.000002 5.180786 6.668796 -75.546967 7.106010 6.877521 -91.876761 0.000003 -0.000000 -0.000005 0.347164 5.312929 -74.281688 7.182506 6.874620 -92.515677 -0.000001 0.000001 -0.000005 -2.219144 5.082054 -77.867476 7.074988 2.792216 -91.619591 -0.000000 0.000001 -0.000003 -0.000000 -0.000000 -0.000001 1.692616 3.149008 3.069546 14.871005 -10.067860 62.281148 -0.000012 57.664466 -0.000002 -40.504787 -2.777550 9.595869 19.842144 -4.446542 11.267546 13.543055 -24.319344 0.843817 0.000000 -0.000000 0.000001 4.460560 -6.489686 68.973723 8.039649 -6.862407 99.059183 -0.000001 0.000003 0.000002 4.588027 -6.537085 69.737304 8.039674 -6.862379 99.059518 0.000002 -0.000001 -0.000000 4.426527 -6.477864 67.610335 8.224158 -6.830656 100.606795 -0.000000 0.000002 0.000004 4.460558 -6.489650 68.973723 8.039656 -6.862401 99.059176 0.000001 -0.000001 0.000000 0.000000 0.000001 0.000001 -0.000000 0.000001 -0.000000 -0.000000 0.000001 -0.000000 -0.000000 0.000001 -0.000000 -0.000000 0.000001 -0.000000 -0.000000 0.000001 -0.000000 -0.000000 0.000001 -0.000000 -0.000000 0.000001 -0.000000 -0.000000 0.000001 -0.000000 -0.000000 0.000001 -0.000000 0.000001 0.000000 -0.000000 0.000001 0.000000 -0.000000 -0.000000 0.000000 -0.000000 
4.380604 86.796249 4.109575 -1.857414 -4.475368 -1.015469 -0.000000 0.000000 0.000000 -9.872522 9.141171 0.520445 20.656167 -9.289376 4.789172 17.320011 -7.841855 -0.460214 0.000002 -0.000000 -0.000000 0.000002 -0.000000 -0.000000 0.000001 -0.000000 -0.000000 -22.902324 -7.648275 -2.611007 36.699569 1.214103 4.886613 8.519800 -1.493138 8.477642 -0.000001 0.000002 -0.000001 -0.000001 0.000002 -0.000001 0.000001 0.000001 0.000000 10.576928 -2.678900 1.588438 -0.364715 -0.275121 0.714679 -0.361968 -0.266897 0.720360 7.932220 -2.052762 -2.653289 0.434262 2.573819 0.010814 0.000000 -0.000000 0.000000 0.000000 -0.000000 0.000000 0.000000 -0.000000 0.000000 -2.424220 15.970937 -8.055288 12.477882 -9.615508 -52.194130 0.000008 -53.622012 0.000017 -52.295357 7.810455 5.049508 -1.540042 3.690200 6.142352 51.365133 17.351863 -36.181698 -0.000000 -0.000001 0.000000 7.501351 7.296429 -74.775770 7.106070 6.877545 -91.877219 -0.000005 0.000000 -0.000004 5.180785 6.668797 -75.546974 7.106002 6.877523 -91.876761 0.000002 -0.000000 0.000000 0.347162 5.312938 -74.281695 7.182505 6.874625 -92.515677 0.000001 0.000001 -0.000004 -2.219143 5.082056 -77.867476 7.074995 2.792214 -91.619591 0.000001 -0.000001 -0.000002 0.000001 -0.000002 0.000001 1.844039 2.197471 5.404700 13.641016 -8.031135 60.856364 0.000002 42.644269 -0.000002 -43.330389 -6.106113 9.763302 19.842142 -4.446538 11.267545 13.543053 -24.319344 0.843816 0.000000 0.000001 -0.000000 4.460559 -6.489682 68.973723 8.039654 -6.862404 99.059183 0.000002 -0.000002 0.000003 4.588023 -6.537082 69.737304 8.039675 -6.862384 99.059518 -0.000001 0.000000 -0.000004 4.426524 -6.477854 67.610342 8.224156 -6.830658 100.606788 -0.000003 0.000002 0.000004 4.460550 -6.489645 68.973716 8.039655 -6.862394 99.059183 -0.000003 -0.000001 -0.000002 -0.000000 0.000001 -0.000003 -0.000000 -0.000001 0.000000 -0.000000 -0.000001 0.000000 -0.000000 -0.000001 0.000000 -0.000000 -0.000001 0.000000 -0.000000 -0.000001 0.000000 -0.000001 -0.000001 0.000000 -0.000000 -0.000001 0.000000 -0.000000 -0.000001 0.000000 -0.000001 -0.000001 0.000000 -0.000000 0.000000 -0.000000 -0.000000 0.000000 -0.000000 -0.000000 0.000000 0.000000 
